<svg id="doc" xmlns="http://www.w3.org/2000/svg" viewBox="0 0 385.87 512"><defs><style>.cls-1{fill:#351d00;}.cls-2{fill:#0081cf;}.cls-3{fill:#0051cf;}.cls-4{font-size:120px;font-family:Calibri-Bold, Calibri;font-weight:700;letter-spacing:0.05em;}.cls-4,.cls-5{fill:#fff;}</style></defs><title>doc</title><polygon class="cls-1" points="0 327.96 22.94 327.96 22.94 297.85 0 327.96"/><polygon class="cls-1" points="385.87 327.96 362.94 327.96 362.94 297.85 385.87 327.96"/><path class="cls-2" d="M224,.64l-116,116v376a20,20,0,0,0,20,20h300a20,20,0,0,0,20-20v-472a20,20,0,0,0-20-20Z" transform="translate(-85.11 -0.64)"/><polygon class="cls-3" points="340 327.96 45.87 327.96 0 327.96 22.94 430.6 362.94 430.6 385.87 327.96 340 327.96"/><text class="cls-4" transform="translate(54.05 419.23)">.DOC</text><path class="cls-3" d="M224,.64l-116,116h96a20,20,0,0,0,20-20Z" transform="translate(-85.11 -0.64)"/><rect class="cls-5" x="78.91" y="150.53" width="158.76" height="19.91" rx="6.32"/><rect class="cls-5" x="78.91" y="193.84" width="200.12" height="19.91" rx="7.09"/><rect class="cls-5" x="78.91" y="237.15" width="239.37" height="19.91" rx="7.76"/></svg>