<svg id="folder_open" data-name="folder open" xmlns="http://www.w3.org/2000/svg" xmlns:xlink="http://www.w3.org/1999/xlink" viewBox="0 0 342.63 248.69"><defs><style>.cls-1{fill:#f49e00;}.cls-2{fill:url(#radial-gradient);}</style><radialGradient id="radial-gradient" cx="301.47" cy="257.85" r="136.16" gradientTransform="translate(-0.77) scale(1.01 1)" gradientUnits="userSpaceOnUse"><stop offset="0" stop-color="#ffe66a"/><stop offset="1" stop-color="#ffc755"/></radialGradient></defs><title>folder-opened</title><path class="cls-1" d="M418.56,132.11H300.21L256.65,99.2l-91.1.25c-19,0-34.41,13.54-34.41,30.25v25.43c0,.66-.09,1.32-.09,2V322.35a25,25,0,0,0,25,25H418.56a25,25,0,0,0,25-25V157.11A25,25,0,0,0,418.56,132.11Z" transform="translate(-131.05 -99.2)"/><path class="cls-2" d="M419.22,347.89H156.42a25,25,0,0,1-24.54-30.47l29.3-130.08a25.12,25.12,0,0,1,24.54-19.53h262.8a25,25,0,0,1,24.54,30.46l-29.3,130.08A25.12,25.12,0,0,1,419.22,347.89Z" transform="translate(-131.05 -99.2)"/></svg>