<svg id="folder_back" data-name="folder back" xmlns="http://www.w3.org/2000/svg" xmlns:xlink="http://www.w3.org/1999/xlink" viewBox="0 0 342.63 323.59"><defs><style>.cls-1{fill:#f49e00;}.cls-2{fill:#001035;}.cls-3{fill:#362aff;}.cls-4{fill:url(#radial-gradient);}</style><radialGradient id="radial-gradient" cx="268.2" cy="337" r="136.16" gradientTransform="translate(-0.77) scale(1.01 1)" gradientUnits="userSpaceOnUse"><stop offset="0" stop-color="#ffe66a"/><stop offset="1" stop-color="#ffc755"/></radialGradient></defs><title>folder-back</title><path class="cls-1" d="M385.09,211.26H266.74l-43.56-32.91-91.1.25c-19,0-34.41,13.54-34.41,30.24v25.44c0,.66-.09,1.31-.09,2V401.49a25,25,0,0,0,25,25H385.09a25,25,0,0,0,25-25V236.26A25,25,0,0,0,385.09,211.26Z" transform="translate(-97.58 -103.45)"/><path class="cls-2" d="M207,105.66v2c0,11.89,0,23.77,0,35.65,0,1.24.34,1.73,2.36,1.95,23,2.4,45,7,65.36,14.85,27.81,10.67,49.11,25.78,64.77,44.69,11.65,14.07,25.15,35.67,30.22,51.43.32,1,13.89,37.7,14.22,39.1-7-6.76-26.23-35.5-34.59-40.92-17.23-11.19-44.63-38.66-67.12-43.81a302.27,302.27,0,0,0-46.3-6.57c-8.8-.62-17.63-.72-26.46-1-2.06-.06-2.47.36-2.47,1.69.08,12.74.05,25.49.05,38.23-.83.2-1.06-.3-1.41-.54Q156.71,209,107.85,175.52c-1-.71-1.39-1.1-.12-2q49.28-33.68,98.44-67.4C206.29,106.06,206.42,106,207,105.66Z" transform="translate(-97.58 -103.45)"/><path class="cls-3" d="M206.62,103.45v2c0,11.88,0,23.76,0,35.65,0,1.24.34,1.73,2.36,1.94,23,2.41,45,7,65.36,14.86,27.81,10.66,49.11,25.77,64.77,44.69,11.65,14.07,25.15,35.66,30.22,51.42.32,1,13.89,37.71,14.22,39.1-7-6.76-26.23-35.49-34.59-40.92-17.23-11.18-44.63-38.65-67.12-43.81a302.26,302.26,0,0,0-46.3-6.56c-8.8-.62-17.63-.73-26.46-1-2.06-.06-2.47.36-2.46,1.69.07,12.74,0,25.49,0,38.23-.83.2-1.06-.3-1.41-.54q-48.87-33.45-97.73-66.9c-1-.72-1.39-1.11-.12-2q49.28-33.66,98.44-67.4Z" transform="translate(-97.58 -103.45)"/><path class="cls-4" d="M385.75,427H123a25,25,0,0,1-24.54-30.47l29.3-130.08A25.11,25.11,0,0,1,152.25,247h262.8a25,25,0,0,1,24.54,30.46L410.29,407.5A25.12,25.12,0,0,1,385.75,427Z" transform="translate(-97.58 -103.45)"/></svg>