<svg id="jpg" xmlns="http://www.w3.org/2000/svg" viewBox="0 0 385.87 517"><defs><style>.cls-1{fill:#351d00;}.cls-2,.cls-4{fill:#fff;}.cls-2,.cls-7{stroke:#117f00;stroke-miterlimit:10;}.cls-2{stroke-width:5px;}.cls-3,.cls-7{fill:#117f00;}.cls-4{font-size:120px;font-family:Calibri-Bold, Calibri;font-weight:700;letter-spacing:0.07em;}.cls-5{letter-spacing:0.05em;}.cls-6{fill:#00bfd4;}.cls-8{fill:#ffcb0a;}</style></defs><title>jpg</title><polygon class="cls-1" points="0 330.46 22.94 330.46 22.94 300.35 0 330.46"/><polygon class="cls-1" points="385.87 330.46 362.94 330.46 362.94 300.35 385.87 330.46"/><path class="cls-2" d="M206.36.77l-116,116v376a20,20,0,0,0,20,20h300a20,20,0,0,0,20-20v-472a20,20,0,0,0-20-20Z" transform="translate(-67.45 1.73)"/><polygon class="cls-3" points="340 330.46 45.87 330.46 0 330.46 22.94 433.1 362.94 433.1 385.87 330.46 340 330.46"/><text class="cls-4" transform="translate(73.15 421.73)">.<tspan class="cls-5" x="40.1" y="0">JPG</tspan></text><path class="cls-3" d="M206.36.77l-116,116h96a20,20,0,0,0,20-20Z" transform="translate(-67.45 1.73)"/><polygon class="cls-6" points="175.25 277.87 146.82 277.87 118.75 277.87 118.75 296.99 271.47 296.99 271.47 277.87 175.25 277.87"/><polygon class="cls-7" points="146.82 277.87 175.25 277.87 162.5 261.19 146.82 277.87"/><polygon class="cls-7" points="162.5 261.19 135.04 224.98 119.08 246.84 119.08 277.87 146.95 277.87 162.5 261.19"/><path class="cls-6" d="M230,259.46l58.89-62.66,50.07,51.27V142.53H186.19V245.1l16.08-21.85Zm-.14-68.61a8.93,8.93,0,1,1-8.93,8.93A8.92,8.92,0,0,1,229.81,190.85Z" transform="translate(-67.45 1.73)"/><polygon class="cls-7" points="162.5 261.19 175.19 277.87 270.96 277.87 270.96 249.8 221.11 198.53 162.5 261.19"/><circle class="cls-8" cx="229.81" cy="199.78" r="8.93" transform="translate(-107.2 59.88) rotate(-13.28)"/></svg>