<svg id="mp3" xmlns="http://www.w3.org/2000/svg" viewBox="0 0 385.87 517"><defs><style>.cls-1{fill:#351d00;}.cls-2,.cls-4{fill:#fff;}.cls-2,.cls-5{stroke:#006bbf;stroke-miterlimit:10;}.cls-2{stroke-width:5px;}.cls-3,.cls-5{fill:#006bbf;}.cls-4{font-size:120px;font-family:Calibri-Bold, Calibri;font-weight:700;letter-spacing:0.05em;}</style></defs><title>mp3</title><polygon class="cls-1" points="0 330.46 22.94 330.46 22.94 300.35 0 330.46"/><polygon class="cls-1" points="385.87 330.46 362.94 330.46 362.94 300.35 385.87 330.46"/><path class="cls-2" d="M202.37.91l-116,116v376a20,20,0,0,0,20,20h300a20,20,0,0,0,20-20v-472a20,20,0,0,0-20-20Z" transform="translate(-63.45 1.59)"/><polygon class="cls-3" points="340 330.46 45.87 330.46 0 330.46 22.94 433.1 362.94 433.1 385.87 330.46 340 330.46"/><text class="cls-4" transform="translate(49.42 421.73)">.MP3</text><path class="cls-3" d="M202.37.91l-116,116h96a20,20,0,0,0,20-20Z" transform="translate(-63.45 1.59)"/><ellipse class="cls-5" cx="288.68" cy="273.04" rx="35.69" ry="25" transform="translate(-83.16 24.06) rotate(-4.31)"/><rect class="cls-5" x="248.91" y="144.43" width="4.53" height="129.28" transform="translate(-78.46 21.06) rotate(-4.31)"/><path class="cls-5" d="M250.07,173.68l-68.44,14.7s57.57-26.8,62.5-42.39C246,140,250.07,173.68,250.07,173.68Z" transform="translate(-63.45 1.59)"/></svg>