<svg id="mp4" xmlns="http://www.w3.org/2000/svg" viewBox="0 0 385.87 517"><defs><style>.cls-1{fill:#351d00;}.cls-2,.cls-4{fill:#fff;}.cls-2{stroke:#9f0082;stroke-miterlimit:10;stroke-width:5px;}.cls-3{fill:#9f0082;}.cls-4{font-size:120px;font-family:Calibri-Bold, Calibri;font-weight:700;letter-spacing:0.05em;}</style></defs><title>mp4</title><polygon class="cls-1" points="0 330.46 22.94 330.46 22.94 300.35 0 330.46"/><polygon class="cls-1" points="385.87 330.46 362.94 330.46 362.94 300.35 385.87 330.46"/><path class="cls-2" d="M210.34.21l-116,116v376a20,20,0,0,0,20,20h300a20,20,0,0,0,20-20v-472a20,20,0,0,0-20-20Z" transform="translate(-71.43 2.29)"/><polygon class="cls-3" points="340 330.46 45.87 330.46 0 330.46 22.94 433.1 362.94 433.1 385.87 330.46 340 330.46"/><text class="cls-4" transform="translate(49.42 421.73)">.MP4</text><path class="cls-3" d="M210.34.21l-116,116h96a20,20,0,0,0,20-20Z" transform="translate(-71.43 2.29)"/><rect class="cls-3" x="100.77" y="172.35" width="128.68" height="92.68" rx="25"/><path class="cls-3" d="M354.06,185.53v63.41A15,15,0,0,1,330.18,261L270.66,217.3l59.51-43.84A15,15,0,0,1,354.06,185.53Z" transform="translate(-71.43 2.29)"/></svg>