<svg id="pdf" xmlns="http://www.w3.org/2000/svg" viewBox="0 0 385.87 517"><defs><style>.cls-1{fill:#351d00;}.cls-2,.cls-4{fill:#fff;}.cls-2{stroke:#b40019;stroke-miterlimit:10;stroke-width:5px;}.cls-3{fill:#b40019;}.cls-4{font-size:120px;font-family:Calibri-Bold, Calibri;font-weight:700;letter-spacing:0.05em;}</style></defs><title>pdf</title><polygon class="cls-1" points="0 330.46 22.94 330.46 22.94 300.35 0 330.46"/><polygon class="cls-1" points="385.87 330.46 362.94 330.46 362.94 300.35 385.87 330.46"/><path class="cls-2" d="M217.45.11l-116,116v376a20,20,0,0,0,20,20h300a20,20,0,0,0,20-20v-472a20,20,0,0,0-20-20Z" transform="translate(-78.53 2.39)"/><polygon class="cls-3" points="340 330.46 45.87 330.46 0 330.46 22.94 433.1 362.94 433.1 385.87 330.46 340 330.46"/><text class="cls-4" transform="translate(66.91 421.73)">.PDF</text><path class="cls-3" d="M217.45.11l-116,116h96a20,20,0,0,0,20-20Z" transform="translate(-78.53 2.39)"/><rect class="cls-3" x="78.91" y="153.03" width="239.37" height="19.91" rx="7.76"/><rect class="cls-3" x="78.91" y="196.34" width="239.37" height="19.91" rx="7.76"/><rect class="cls-3" x="78.91" y="239.65" width="239.37" height="19.91" rx="7.76"/></svg>