<svg id="ppt" xmlns="http://www.w3.org/2000/svg" viewBox="0 0 385.87 512"><defs><style>.cls-1{fill:#351d00;}.cls-2{fill:#e9002e;}.cls-3{fill:#b40019;}.cls-4{font-size:120px;font-family:Calibri-Bold, Calibri;font-weight:700;letter-spacing:0.05em;}.cls-4,.cls-6{fill:#fff;}.cls-5{letter-spacing:0.05em;}</style></defs><title>ppt</title><polygon class="cls-1" points="0 327.96 22.94 327.96 22.94 297.85 0 327.96"/><polygon class="cls-1" points="385.87 327.96 362.94 327.96 362.94 297.85 385.87 327.96"/><path class="cls-2" d="M207.49,0l-116,116V492a20,20,0,0,0,20,20h300a20,20,0,0,0,20-20V20a20,20,0,0,0-20-20Z" transform="translate(-68.57)"/><polygon class="cls-3" points="340 327.96 45.87 327.96 0 327.96 22.94 430.6 362.94 430.6 385.87 327.96 340 327.96"/><text class="cls-4" transform="translate(70.81 419.23)">.P<tspan class="cls-5" x="107.92" y="0">P</tspan><tspan x="177.43" y="0">T</tspan></text><path class="cls-3" d="M207.49,0l-116,116h96a20,20,0,0,0,20-20Z" transform="translate(-68.57)"/><path class="cls-6" d="M165.49,144.17v112.7h194V144.17ZM350.11,246.66H174.91V154.38h175.2Z" transform="translate(-68.57)"/><rect class="cls-6" x="190.87" y="139.06" width="6.13" height="10.21"/><rect class="cls-6" x="281.13" y="243.04" width="6.13" height="55.19" transform="translate(-176.71 280.22) rotate(-45)"/><rect class="cls-6" x="237.77" y="243.04" width="6.13" height="55.19" transform="translate(151.18 632.3) rotate(-135)"/><rect class="cls-6" x="146.72" y="203.15" width="8.43" height="16.09"/><rect class="cls-6" x="157.96" y="196.77" width="8.43" height="22.47"/><rect class="cls-6" x="169.19" y="189.36" width="8.43" height="29.87"/><path class="cls-6" d="M289,176a25.15,25.15,0,1,0,25.15,25.15H289Z" transform="translate(-68.57)"/><path class="cls-6" d="M292.79,172v25.15h25.15A25.15,25.15,0,0,0,292.79,172Z" transform="translate(-68.57)"/></svg>