<svg id="xls" xmlns="http://www.w3.org/2000/svg" viewBox="0 0 385.87 512"><defs><style>.cls-1{fill:#00b423;}.cls-2,.cls-5{fill:#fff;}.cls-3{fill:#351d00;}.cls-4{fill:#006a47;}.cls-5{font-size:120px;font-family:Calibri-Bold, Calibri;font-weight:700;letter-spacing:0.05em;}</style></defs><title>xls</title><path class="cls-1" d="M211.58.11l-116,116v376a20,20,0,0,0,20,20h300a20,20,0,0,0,20-20v-472a20,20,0,0,0-20-20Z" transform="translate(-72.66 -0.11)"/><path class="cls-2" d="M176.43,135V293.21H359.11V135Zm83.28,144.93H191.87V245h67.84Zm0-48.36H191.87V196.64h67.84Zm0-48.35H191.87V148.28h67.84Zm84,96.71H275.83V245h67.83Zm0-48.36H275.83V196.64h67.83Zm0-48.35H275.83V148.28h67.83Z" transform="translate(-72.66 -0.11)"/><polygon class="cls-3" points="0 327.96 22.94 327.96 22.94 297.85 0 327.96"/><polygon class="cls-3" points="385.87 327.96 362.94 327.96 362.94 297.85 385.87 327.96"/><polygon class="cls-4" points="340 327.96 45.87 327.96 0 327.96 22.94 430.6 362.94 430.6 385.87 327.96 340 327.96"/><text class="cls-5" transform="translate(77.43 419.23)">.XLS</text><path class="cls-4" d="M211.58.11l-116,116h96a20,20,0,0,0,20-20Z" transform="translate(-72.66 -0.11)"/></svg>