<svg id="zip" xmlns="http://www.w3.org/2000/svg" viewBox="0 0 385.87 512"><defs><style>.cls-1{fill:#ffbd0a;}.cls-2{fill:#351d00;}.cls-3{fill:#8a7000;}.cls-4{font-size:120px;font-family:Calibri-Bold, Calibri;font-weight:700;letter-spacing:0.05em;}.cls-4,.cls-5{fill:#fff;}</style></defs><title>zip</title><path class="cls-1" d="M204.89.53l-116,116v376a20,20,0,0,0,20,20h300a20,20,0,0,0,20-20v-472a20,20,0,0,0-20-20Z" transform="translate(-65.98 -0.53)"/><polygon class="cls-2" points="0 327.96 22.94 327.96 22.94 297.85 0 327.96"/><polygon class="cls-2" points="385.87 327.96 362.94 327.96 362.94 297.85 385.87 327.96"/><polygon class="cls-3" points="340 327.96 45.87 327.96 0 327.96 22.94 430.6 362.94 430.6 385.87 327.96 340 327.96"/><text class="cls-4" transform="translate(87.6 419.23)">.ZIP</text><path class="cls-3" d="M204.89.53l-116,116h96a20,20,0,0,0,20-20Z" transform="translate(-65.98 -0.53)"/><rect class="cls-5" x="148.42" y="204.81" width="20.57" height="17.88" rx="4.39" transform="translate(-121.02 371.93) rotate(-90)"/><path class="cls-5" d="M154.83,199.34h8.08c1.57,0,2.48,1.5,1.55,2.56l-5.58,6.4-5.6-6.4C152.35,200.84,153.26,199.34,154.83,199.34Z" transform="translate(-65.98 -0.53)"/><rect class="cls-5" x="161.03" y="180.13" width="20.57" height="17.88" rx="4.39" transform="translate(294.41 17.22) rotate(90)"/><path class="cls-5" d="M167.43,203.49h8.09c1.57,0,2.47-1.5,1.54-2.57l-5.58-6.39-5.59,6.39C165,202,165.86,203.49,167.43,203.49Z" transform="translate(-65.98 -0.53)"/><rect class="cls-5" x="173.92" y="205" width="20.57" height="17.88" rx="4.39" transform="translate(-95.72 397.62) rotate(-90)"/><path class="cls-5" d="M180.32,199.53h8.09c1.57,0,2.47,1.5,1.54,2.56l-5.58,6.4-5.59-6.39C177.85,201,178.75,199.53,180.32,199.53Z" transform="translate(-65.98 -0.53)"/><rect class="cls-5" x="186.52" y="180.32" width="20.57" height="17.88" rx="4.39" transform="translate(320.09 -8.08) rotate(90)"/><path class="cls-5" d="M192.93,203.68H201c1.56,0,2.47-1.5,1.54-2.57L197,194.72l-5.59,6.39C190.45,202.18,191.36,203.68,192.93,203.68Z" transform="translate(-65.98 -0.53)"/><rect class="cls-5" x="199.55" y="204.56" width="20.57" height="17.88" rx="4.39" transform="translate(-69.64 422.81) rotate(-90)"/><path class="cls-5" d="M206,199.08h8.09c1.56,0,2.47,1.5,1.54,2.57L210,208l-5.59-6.39C203.49,200.59,204.39,199.08,206,199.08Z" transform="translate(-65.98 -0.53)"/><rect class="cls-5" x="212.16" y="179.88" width="20.57" height="17.88" rx="4.39" transform="translate(345.29 -34.16) rotate(90)"/><path class="cls-5" d="M218.56,203.23h8.09c1.57,0,2.47-1.5,1.54-2.56l-5.57-6.4-5.6,6.4C216.09,201.73,217,203.23,218.56,203.23Z" transform="translate(-65.98 -0.53)"/><rect class="cls-5" x="225.05" y="204.75" width="20.57" height="17.88" rx="4.39" transform="translate(-44.33 448.5) rotate(-90)"/><path class="cls-5" d="M231.45,199.28h8.09c1.57,0,2.47,1.5,1.54,2.56l-5.58,6.4-5.59-6.4C229,200.78,229.88,199.28,231.45,199.28Z" transform="translate(-65.98 -0.53)"/><rect class="cls-5" x="237.66" y="180.07" width="20.57" height="17.88" rx="4.39" transform="translate(370.97 -59.46) rotate(90)"/><path class="cls-5" d="M244.06,203.43h8.09c1.57,0,2.47-1.5,1.54-2.57l-5.58-6.39-5.59,6.39C241.59,201.92,242.49,203.43,244.06,203.43Z" transform="translate(-65.98 -0.53)"/><rect class="cls-5" x="250.76" y="205.03" width="20.57" height="17.88" rx="4.39" transform="translate(-18.91 474.49) rotate(-90)"/><path class="cls-5" d="M257.16,199.56h8.09c1.57,0,2.47,1.5,1.54,2.56l-5.58,6.4-5.59-6.39C254.69,201.06,255.59,199.56,257.16,199.56Z" transform="translate(-65.98 -0.53)"/><rect class="cls-5" x="263.36" y="180.35" width="20.57" height="17.88" rx="4.39" transform="translate(396.96 -84.89) rotate(90)"/><path class="cls-5" d="M269.77,203.71h8.08c1.57,0,2.48-1.5,1.55-2.57l-5.58-6.39-5.6,6.39C267.29,202.21,268.2,203.71,269.77,203.71Z" transform="translate(-65.98 -0.53)"/><rect class="cls-5" x="276.25" y="205.23" width="20.57" height="17.88" rx="4.39" transform="translate(6.39 500.17) rotate(-90)"/><path class="cls-5" d="M282.65,199.75h8.09c1.57,0,2.47,1.5,1.55,2.57l-5.58,6.39-5.6-6.39C280.18,201.25,281.09,199.75,282.65,199.75Z" transform="translate(-65.98 -0.53)"/><rect class="cls-5" x="288.86" y="180.54" width="20.57" height="17.88" rx="4.39" transform="translate(422.65 -110.19) rotate(90)"/><path class="cls-5" d="M295.26,203.9h8.09c1.57,0,2.47-1.5,1.54-2.56l-5.58-6.4-5.59,6.4C292.79,202.4,293.69,203.9,295.26,203.9Z" transform="translate(-65.98 -0.53)"/><rect class="cls-5" x="301.89" y="204.78" width="20.57" height="17.88" rx="4.39" transform="translate(32.47 525.37) rotate(-90)"/><path class="cls-5" d="M308.29,199.31h8.09c1.57,0,2.47,1.5,1.54,2.56l-5.58,6.4-5.59-6.4C305.82,200.81,306.72,199.31,308.29,199.31Z" transform="translate(-65.98 -0.53)"/><rect class="cls-5" x="314.49" y="180.1" width="20.57" height="17.88" rx="4.39" transform="translate(447.84 -136.27) rotate(90)"/><path class="cls-5" d="M320.9,203.46H329c1.57,0,2.47-1.5,1.54-2.57L325,194.5l-5.59,6.39C318.43,202,319.33,203.46,320.9,203.46Z" transform="translate(-65.98 -0.53)"/><rect class="cls-5" x="327.38" y="204.97" width="20.57" height="17.88" rx="4.39" transform="translate(57.78 551.05) rotate(-90)"/><path class="cls-5" d="M333.79,199.5h8.09c1.56,0,2.47,1.5,1.54,2.56l-5.58,6.4-5.59-6.39C331.31,201,332.22,199.5,333.79,199.5Z" transform="translate(-65.98 -0.53)"/><rect class="cls-5" x="339.99" y="180.29" width="20.57" height="17.88" rx="4.39" transform="translate(473.53 -161.57) rotate(90)"/><path class="cls-5" d="M346.39,203.65h8.09c1.57,0,2.47-1.5,1.54-2.57l-5.57-6.39-5.6,6.39C343.92,202.15,344.82,203.65,346.39,203.65Z" transform="translate(-65.98 -0.53)"/><path class="cls-5" d="M365.71,198.31l-20.48.23L337.09,266h36.29Zm-4.62,7,2.13,26.06H347.17l2.24-25.87ZM344.77,259l1.92-22.1h17l1.8,22.1Z" transform="translate(-65.98 -0.53)"/></svg>